<mxfile host="Electron" agent="Mozilla/5.0 (Windows NT 10.0; Win64; x64) AppleWebKit/537.36 (KHTML, like Gecko) draw.io/24.7.17 Chrome/128.0.6613.36 Electron/32.0.1 Safari/537.36" version="24.7.17">
  <diagram name="Trang-1" id="8QUQLS6utXSp7vC-HKJB">
    <mxGraphModel dx="1509" dy="880" grid="1" gridSize="10" guides="1" tooltips="1" connect="1" arrows="1" fold="1" page="1" pageScale="1" pageWidth="850" pageHeight="1100" math="0" shadow="0">
      <root>
        <mxCell id="0" />
        <mxCell id="1" parent="0" />
        <mxCell id="ndmQ83HmeGBNLjscfloO-1" value="Checkin staff" style="shape=umlActor;verticalLabelPosition=bottom;verticalAlign=top;html=1;" parent="1" vertex="1">
          <mxGeometry x="80" y="130" width="30" height="60" as="geometry" />
        </mxCell>
        <mxCell id="ndmQ83HmeGBNLjscfloO-5" value="QR scanner" style="html=1;whiteSpace=wrap;" parent="1" vertex="1">
          <mxGeometry x="340" y="150" width="110" height="50" as="geometry" />
        </mxCell>
        <mxCell id="ndmQ83HmeGBNLjscfloO-6" value="Checkin service" style="html=1;whiteSpace=wrap;" parent="1" vertex="1">
          <mxGeometry x="570" y="150" width="110" height="50" as="geometry" />
        </mxCell>
        <mxCell id="ndmQ83HmeGBNLjscfloO-7" value="Analystics service" style="html=1;whiteSpace=wrap;" parent="1" vertex="1">
          <mxGeometry x="570" y="320" width="110" height="50" as="geometry" />
        </mxCell>
        <mxCell id="ndmQ83HmeGBNLjscfloO-8" value="Event operator" style="html=1;whiteSpace=wrap;" parent="1" vertex="1">
          <mxGeometry x="570" y="490" width="110" height="50" as="geometry" />
        </mxCell>
        <mxCell id="ndmQ83HmeGBNLjscfloO-10" value="1. scan QR" style="text;strokeColor=none;align=center;fillColor=none;html=1;verticalAlign=middle;whiteSpace=wrap;rounded=0;" parent="1" vertex="1">
          <mxGeometry x="180" y="130" width="90" height="30" as="geometry" />
        </mxCell>
        <mxCell id="ndmQ83HmeGBNLjscfloO-13" value="7. display result" style="text;strokeColor=none;align=center;fillColor=none;html=1;verticalAlign=middle;whiteSpace=wrap;rounded=0;" parent="1" vertex="1">
          <mxGeometry x="180" y="190" width="80" height="30" as="geometry" />
        </mxCell>
        <mxCell id="ndmQ83HmeGBNLjscfloO-15" value="" style="endArrow=classic;html=1;rounded=0;entryX=0.006;entryY=0.218;entryDx=0;entryDy=0;entryPerimeter=0;" parent="1" source="ndmQ83HmeGBNLjscfloO-1" target="ndmQ83HmeGBNLjscfloO-5" edge="1">
          <mxGeometry width="50" height="50" relative="1" as="geometry">
            <mxPoint x="120" y="160" as="sourcePoint" />
            <mxPoint x="240" y="100" as="targetPoint" />
          </mxGeometry>
        </mxCell>
        <mxCell id="ndmQ83HmeGBNLjscfloO-16" value="" style="endArrow=classic;html=1;rounded=0;exitX=0.004;exitY=0.799;exitDx=0;exitDy=0;entryX=1;entryY=1;entryDx=0;entryDy=0;entryPerimeter=0;exitPerimeter=0;" parent="1" source="ndmQ83HmeGBNLjscfloO-5" target="ndmQ83HmeGBNLjscfloO-1" edge="1">
          <mxGeometry width="50" height="50" relative="1" as="geometry">
            <mxPoint x="150" y="230" as="sourcePoint" />
            <mxPoint x="200" y="180" as="targetPoint" />
          </mxGeometry>
        </mxCell>
        <mxCell id="ndmQ83HmeGBNLjscfloO-17" value="" style="endArrow=classic;html=1;rounded=0;entryX=0;entryY=0.25;entryDx=0;entryDy=0;exitX=1;exitY=0.25;exitDx=0;exitDy=0;" parent="1" source="ndmQ83HmeGBNLjscfloO-5" target="ndmQ83HmeGBNLjscfloO-6" edge="1">
          <mxGeometry width="50" height="50" relative="1" as="geometry">
            <mxPoint x="480" y="190" as="sourcePoint" />
            <mxPoint x="530" y="140" as="targetPoint" />
          </mxGeometry>
        </mxCell>
        <mxCell id="ndmQ83HmeGBNLjscfloO-18" value="" style="endArrow=classic;html=1;rounded=0;entryX=1;entryY=0.75;entryDx=0;entryDy=0;exitX=0;exitY=0.75;exitDx=0;exitDy=0;" parent="1" source="ndmQ83HmeGBNLjscfloO-6" target="ndmQ83HmeGBNLjscfloO-5" edge="1">
          <mxGeometry width="50" height="50" relative="1" as="geometry">
            <mxPoint x="490" y="240" as="sourcePoint" />
            <mxPoint x="540" y="190" as="targetPoint" />
          </mxGeometry>
        </mxCell>
        <mxCell id="ndmQ83HmeGBNLjscfloO-19" value="2. send QR data" style="text;strokeColor=none;align=center;fillColor=none;html=1;verticalAlign=middle;whiteSpace=wrap;rounded=0;" parent="1" vertex="1">
          <mxGeometry x="470" y="130" width="80" height="30" as="geometry" />
        </mxCell>
        <mxCell id="ndmQ83HmeGBNLjscfloO-20" value="6. return result" style="text;strokeColor=none;align=center;fillColor=none;html=1;verticalAlign=middle;whiteSpace=wrap;rounded=0;" parent="1" vertex="1">
          <mxGeometry x="480" y="190" width="70" height="30" as="geometry" />
        </mxCell>
        <mxCell id="ndmQ83HmeGBNLjscfloO-23" value="3. validate QR" style="html=1;align=left;spacingLeft=2;endArrow=block;rounded=0;edgeStyle=orthogonalEdgeStyle;curved=0;rounded=0;exitX=0.998;exitY=0.208;exitDx=0;exitDy=0;exitPerimeter=0;entryX=1.007;entryY=0.799;entryDx=0;entryDy=0;entryPerimeter=0;" parent="1" source="ndmQ83HmeGBNLjscfloO-6" target="ndmQ83HmeGBNLjscfloO-6" edge="1">
          <mxGeometry relative="1" as="geometry">
            <mxPoint x="690" y="160" as="sourcePoint" />
            <Array as="points">
              <mxPoint x="715" y="160" />
              <mxPoint x="715" y="190" />
            </Array>
            <mxPoint x="690" y="190" as="targetPoint" />
          </mxGeometry>
        </mxCell>
        <mxCell id="ndmQ83HmeGBNLjscfloO-26" value="" style="endArrow=classic;html=1;rounded=0;entryX=0.5;entryY=0;entryDx=0;entryDy=0;exitX=0.5;exitY=1;exitDx=0;exitDy=0;" parent="1" source="ndmQ83HmeGBNLjscfloO-6" target="ndmQ83HmeGBNLjscfloO-7" edge="1">
          <mxGeometry width="50" height="50" relative="1" as="geometry">
            <mxPoint x="560" y="300" as="sourcePoint" />
            <mxPoint x="610" y="250" as="targetPoint" />
          </mxGeometry>
        </mxCell>
        <mxCell id="ndmQ83HmeGBNLjscfloO-27" value="4. send checkin event" style="text;strokeColor=none;align=center;fillColor=none;html=1;verticalAlign=middle;whiteSpace=wrap;rounded=0;" parent="1" vertex="1">
          <mxGeometry x="630" y="240" width="110" height="30" as="geometry" />
        </mxCell>
        <mxCell id="ndmQ83HmeGBNLjscfloO-28" value="" style="endArrow=classic;html=1;rounded=0;entryX=0.5;entryY=0;entryDx=0;entryDy=0;exitX=0.5;exitY=1;exitDx=0;exitDy=0;" parent="1" source="ndmQ83HmeGBNLjscfloO-7" target="ndmQ83HmeGBNLjscfloO-8" edge="1">
          <mxGeometry width="50" height="50" relative="1" as="geometry">
            <mxPoint x="624.62" y="380" as="sourcePoint" />
            <mxPoint x="624.62" y="500" as="targetPoint" />
          </mxGeometry>
        </mxCell>
        <mxCell id="ndmQ83HmeGBNLjscfloO-29" value="5. update dashboard" style="text;strokeColor=none;align=center;fillColor=none;html=1;verticalAlign=middle;whiteSpace=wrap;rounded=0;" parent="1" vertex="1">
          <mxGeometry x="630" y="410" width="100" height="30" as="geometry" />
        </mxCell>
        <mxCell id="ndmQ83HmeGBNLjscfloO-30" value="Checkin service" style="html=1;whiteSpace=wrap;" parent="1" vertex="1">
          <mxGeometry x="280" y="620" width="110" height="50" as="geometry" />
        </mxCell>
        <mxCell id="ndmQ83HmeGBNLjscfloO-31" value="Analystics service" style="html=1;whiteSpace=wrap;" parent="1" vertex="1">
          <mxGeometry x="280" y="780" width="110" height="50" as="geometry" />
        </mxCell>
        <mxCell id="ndmQ83HmeGBNLjscfloO-32" value="" style="endArrow=classic;html=1;rounded=0;entryX=0.5;entryY=0;entryDx=0;entryDy=0;exitX=0.5;exitY=1;exitDx=0;exitDy=0;" parent="1" source="ndmQ83HmeGBNLjscfloO-30" target="ndmQ83HmeGBNLjscfloO-31" edge="1">
          <mxGeometry width="50" height="50" relative="1" as="geometry">
            <mxPoint x="240" y="750" as="sourcePoint" />
            <mxPoint x="290" y="700" as="targetPoint" />
          </mxGeometry>
        </mxCell>
        <mxCell id="ndmQ83HmeGBNLjscfloO-33" value="1. send checkin event" style="text;strokeColor=none;align=center;fillColor=none;html=1;verticalAlign=middle;whiteSpace=wrap;rounded=0;" parent="1" vertex="1">
          <mxGeometry x="340" y="710" width="120" height="30" as="geometry" />
        </mxCell>
        <mxCell id="ndmQ83HmeGBNLjscfloO-34" value="Event operator" style="html=1;whiteSpace=wrap;" parent="1" vertex="1">
          <mxGeometry x="100" y="930" width="110" height="50" as="geometry" />
        </mxCell>
        <mxCell id="ndmQ83HmeGBNLjscfloO-35" value="Sponsor" style="html=1;whiteSpace=wrap;" parent="1" vertex="1">
          <mxGeometry x="340" y="960" width="110" height="50" as="geometry" />
        </mxCell>
        <mxCell id="ndmQ83HmeGBNLjscfloO-36" value="2. store/update data" style="html=1;align=left;spacingLeft=2;endArrow=block;rounded=0;edgeStyle=orthogonalEdgeStyle;curved=0;rounded=0;exitX=0.998;exitY=0.208;exitDx=0;exitDy=0;exitPerimeter=0;entryX=1.007;entryY=0.799;entryDx=0;entryDy=0;entryPerimeter=0;" parent="1" edge="1">
          <mxGeometry relative="1" as="geometry">
            <mxPoint x="390" y="790" as="sourcePoint" />
            <Array as="points">
              <mxPoint x="425" y="790" />
              <mxPoint x="425" y="820" />
            </Array>
            <mxPoint x="391" y="820" as="targetPoint" />
          </mxGeometry>
        </mxCell>
        <mxCell id="ndmQ83HmeGBNLjscfloO-37" value="" style="endArrow=classic;html=1;rounded=0;entryX=0.25;entryY=1;entryDx=0;entryDy=0;exitX=0.75;exitY=0;exitDx=0;exitDy=0;" parent="1" source="ndmQ83HmeGBNLjscfloO-34" target="ndmQ83HmeGBNLjscfloO-31" edge="1">
          <mxGeometry width="50" height="50" relative="1" as="geometry">
            <mxPoint x="200" y="920" as="sourcePoint" />
            <mxPoint x="250" y="870" as="targetPoint" />
          </mxGeometry>
        </mxCell>
        <mxCell id="ndmQ83HmeGBNLjscfloO-38" value="3. request attendance analystics" style="text;strokeColor=none;align=center;fillColor=none;html=1;verticalAlign=middle;whiteSpace=wrap;rounded=0;rotation=-40;" parent="1" vertex="1">
          <mxGeometry x="155" y="860" width="140" height="30" as="geometry" />
        </mxCell>
        <mxCell id="ndmQ83HmeGBNLjscfloO-39" value="" style="endArrow=classic;html=1;rounded=0;entryX=0;entryY=0;entryDx=0;entryDy=0;exitX=0;exitY=0;exitDx=0;exitDy=0;" parent="1" source="ndmQ83HmeGBNLjscfloO-31" target="ndmQ83HmeGBNLjscfloO-34" edge="1">
          <mxGeometry width="50" height="50" relative="1" as="geometry">
            <mxPoint x="100" y="810" as="sourcePoint" />
            <mxPoint x="150" y="760" as="targetPoint" />
          </mxGeometry>
        </mxCell>
        <mxCell id="ndmQ83HmeGBNLjscfloO-40" value="&lt;span style=&quot;color: rgb(240, 240, 240); font-family: Helvetica; font-size: 12px; font-style: normal; font-variant-ligatures: normal; font-variant-caps: normal; font-weight: 400; letter-spacing: normal; orphans: 2; text-align: center; text-indent: 0px; text-transform: none; widows: 2; word-spacing: 0px; -webkit-text-stroke-width: 0px; white-space: normal; background-color: rgb(27, 29, 30); text-decoration-thickness: initial; text-decoration-style: initial; text-decoration-color: initial; display: inline !important; float: none;&quot;&gt;4. return attendance report&lt;/span&gt;" style="text;whiteSpace=wrap;html=1;rotation=-40;" parent="1" vertex="1">
          <mxGeometry x="80" y="810" width="210" height="40" as="geometry" />
        </mxCell>
        <mxCell id="ndmQ83HmeGBNLjscfloO-41" value="" style="endArrow=classic;html=1;rounded=0;entryX=0.75;entryY=1;entryDx=0;entryDy=0;exitX=0.181;exitY=-0.017;exitDx=0;exitDy=0;exitPerimeter=0;" parent="1" source="ndmQ83HmeGBNLjscfloO-35" target="ndmQ83HmeGBNLjscfloO-31" edge="1">
          <mxGeometry width="50" height="50" relative="1" as="geometry">
            <mxPoint x="360" y="950" as="sourcePoint" />
            <mxPoint x="410" y="900" as="targetPoint" />
          </mxGeometry>
        </mxCell>
        <mxCell id="ndmQ83HmeGBNLjscfloO-42" value="5. request booth analystics" style="text;strokeColor=none;align=center;fillColor=none;html=1;verticalAlign=middle;whiteSpace=wrap;rounded=0;rotation=90;" parent="1" vertex="1">
          <mxGeometry x="290" y="880" width="107.99" height="30" as="geometry" />
        </mxCell>
        <mxCell id="ndmQ83HmeGBNLjscfloO-43" value="" style="endArrow=classic;html=1;rounded=0;exitX=0.909;exitY=1;exitDx=0;exitDy=0;exitPerimeter=0;entryX=0.364;entryY=0;entryDx=0;entryDy=0;entryPerimeter=0;" parent="1" source="ndmQ83HmeGBNLjscfloO-31" target="ndmQ83HmeGBNLjscfloO-35" edge="1">
          <mxGeometry width="50" height="50" relative="1" as="geometry">
            <mxPoint x="430" y="930" as="sourcePoint" />
            <mxPoint x="480" y="880" as="targetPoint" />
          </mxGeometry>
        </mxCell>
        <mxCell id="ndmQ83HmeGBNLjscfloO-44" value="&lt;span style=&quot;color: rgb(240, 240, 240); font-family: Helvetica; font-size: 12px; font-style: normal; font-variant-ligatures: normal; font-variant-caps: normal; font-weight: 400; letter-spacing: normal; orphans: 2; text-indent: 0px; text-transform: none; widows: 2; word-spacing: 0px; -webkit-text-stroke-width: 0px; white-space: normal; background-color: rgb(27, 29, 30); text-decoration-thickness: initial; text-decoration-style: initial; text-decoration-color: initial; float: none; display: inline !important;&quot;&gt;6. return booth report&lt;/span&gt;" style="text;whiteSpace=wrap;html=1;rotation=90;align=center;" parent="1" vertex="1">
          <mxGeometry x="337.5" y="875" width="125" height="40" as="geometry" />
        </mxCell>
        <mxCell id="eWygM_XRoSk_nc_aWD8P-1" value="&lt;font color=&quot;#ff0000&quot;&gt;&lt;b&gt;Service communication&lt;/b&gt;&lt;/font&gt;" style="text;strokeColor=none;align=center;fillColor=none;html=1;verticalAlign=middle;whiteSpace=wrap;rounded=0;" vertex="1" parent="1">
          <mxGeometry x="330" y="80" width="140" height="30" as="geometry" />
        </mxCell>
        <mxCell id="eWygM_XRoSk_nc_aWD8P-2" value="&lt;font color=&quot;#ff0000&quot;&gt;&lt;b&gt;Analystics communication&lt;/b&gt;&lt;/font&gt;" style="text;strokeColor=none;align=center;fillColor=none;html=1;verticalAlign=middle;whiteSpace=wrap;rounded=0;" vertex="1" parent="1">
          <mxGeometry x="252.5" y="570" width="165" height="30" as="geometry" />
        </mxCell>
      </root>
    </mxGraphModel>
  </diagram>
</mxfile>
